<svg xmlns="http://www.w3.org/2000/svg" width="1024" height="734.561" viewBox="0 0 1024 734.561">
  <g id="Group_57" data-name="Group 57" transform="translate(-105 -65.439)">
    <path id="Path_206" data-name="Path 206" d="M1024,768h0Z" transform="translate(105 32)" fill="rgba(255,255,255,0)"/>
    <path id="Path_52" data-name="Path 52" d="M662,292c-7.635,14.928-15.7,29.46-23.847,44.116-4.312,7.758-18.219,39.849-21.81,41.075-3.867,1.32-27.559-12.612-34.359-15.341C569.9,357,558.42,352.408,545.8,349.418c-14.133-3.349-28.377-5.818-43.037-4.573-6.42.546-17.047,2.1-10.666-6.921,4.652-6.577,9.157-12.634,15.475-17.386,4.6-3.459,11.339-9.8,16.723-12.114,5.649-2.425,13.98-1.887,20.051-1.745,6.563.155,37.844,9.916,39.565-.257,3.191,2.9,5.049,1.78,8.7,3.2,4.121,1.6,6.69,4.7,10.782,6.574,2.655,1.216,7.548,6.023,10.5,6.051,3.923.039,4.979-3.21,7.8-5.608,6.312-5.374,14.716-8.911,21.565-13.58C649.289,298.944,655.031,294.658,662,292ZM593.276,174c-.536,6.815,1.3,13.147,1.258,20.159-.019,3.06-.158,6.119.771,9.067.834,2.643.251,7.39.694,10.158-7.806-2.376-22.309-5.9-30.279-2.7-7.619,3.064-8.578,17.231-8.846,24.121-.183,4.7,1.9,11.931.322,16.427-.737,2.1-.743,2.774-.7,2.963l.006.02c-.15-.077-.762-.076-2.92,1.481-2.139,1.542-4.693,2.393-6.807,4.1-3.844,3.1-4.5,6.616-6.4,11.111-1.843,4.366-6.752,8.246-12.232,8.088,4.4-7.984,10.521-15.44,7.011-24.817-2.648-7.078,1.993-15.383,5.645-22.106,1.209-2.227,14.61-19.286,8.672-20.489-3.856-.782-12.706,17.327-14.4,20.489-4.723-3.193-6.844-7.129-3.209-11.938,2.792-3.693,6.22-6.851,8.937-10.675,4.412-6.207,8.712-13.615,13.953-19.128C563.959,180.649,580.024,174.059,593.276,174Zm-36.771,80.219c.052.035.03.069.007.017Zm160.455-90.8c5.881,5.634,13.32,10.307,19,16.22,4.975,5.176,11.674,13.883,14.037,20.8-12.126,2.337-32.275,9.5-37.1,22.222C694.038,205.35,686.742,237,683,250.236c-11.037-4.776-8.836-20.676-8.69-29.96.113-7.364,4.6-16.081-6.094-16.684-7.991-.449-15.751,2.805-22.958,5.852a95.142,95.142,0,0,0-25.69,16.025L612,219.577c12.415-6.97,18.886-20.3,26.153-32.5,2.318-3.89,5.414-8.216,7.1-12.422,1.17-2.908,1.993-8.778,3.275-11.363,2.017-4.065,21.714-5.184,26.932-6.231C689.239,154.3,705.7,152.639,716.96,163.423Z" transform="translate(105 32)" fill="#fff" fill-rule="evenodd"/>
    <path id="Path_53" data-name="Path 53" d="M645.826,220.711c5.088-.26,10.154.876,15.242.381l-13.253-11.542c-1.952,3.427-2.094,7.325-1.99,11.161Zm-120.717-79.1c-13.17.058-29.235,6.673-38.384,16.334-4.847,5.12-8.852,12-12.952,17.748A87.682,87.682,0,0,1,465,186.672c-4.867,4.943-3.474,6.073,2.01,9.8,1.736-3.252,10.938-20.64,14.795-19.858,5.861,1.189-5.458,19.556-6.694,21.844-3.661,6.77-9.573,16.226-6.917,23.365,3.505,9.425-1.577,14.8-5.99,22.827,4.634.135,5.091-1.673,6.688-5.626,2.051-5.08,4.29-9.324,8.627-12.837,3.359-2.719,8.854-3.864,10.432-7.148,1.952-4.059.727-12.075.885-16.591.24-6.861.258-23.082,7.819-26.131,7.922-3.194,22.166-.184,29.91,2.182-.967-6.047-4.017-10-3.975-16.716.045-7.034,1.982-13.309,2.519-20.167ZM423.933,253.83c6.889-2.181,13.42-4.479,20.508-5.965,7.417-1.556,7.913-3.336,12.095-9.7,3.169-4.821,7.015-8.58,6.117-14.485-.576-3.788-2.65-5.633-2.026-9.892a45.5,45.5,0,0,1,2.509-8.033c1.092-3.08,3.354-6.574-1.907-6.726-2.905-.084-3.047,1.448-5.013,4.022-3.628,4.753-7.8,9.069-11.664,13.627-6.706,7.915-13.816,16.338-21.3,23.663a110.785,110.785,0,0,0-20.678,28.1c-.983,1.906-6.965,13.131-4.413,15.332,2.343,2.021,15.376-2.693,17.753-3.245,10.257-2.381,21.9-3.231,31.592-7.555,4.937-2.2,15.834-4.834,19.733-8.243,3.626-3.169,3.462-10.847,1.358-15.314-5.888,3.663-48.458,17.484-44.662,4.409Zm128.161-63a86.73,86.73,0,0,1,23.487-14.881c7.592-3.3,17.023-6.981,25.469-6.408,10.524.713,6.126,9.19,6.088,16.408-.049,9.578-4.247,23.377,7.19,28.346,3.734-13.263,11.6-44.625,30.455-27.246,4.818-12.752,22-17.068,34.1-19.41-2.193-6.443-8.855-12.275-13.472-17.111-5.776-6.049-10.336-13.14-16.123-19.075-11.432-11.72-32.141-7.956-46.614-5.035-4.831.974-18.835,2.2-21.176,5.746-1.468,2.225-.648,7.661-1.736,10.381-1.5,3.749-4.06,7.224-6.115,10.686-7.5,12.633-15.123,25.348-27.952,32.581Zm41.952,68.058c-6.787,2.6-11.78,6.96-17.8,10.627-7.3,4.447-15.859,8.611-22.41,14.1-2.4,2.009-3.744,5.479-7.053,5.7-2.877.2-7.263-3.147-9.815-4.316-4.28-1.965-8.368-4.942-12.669-6.693-3.535-1.439-5.1-1.145-8.158-3.944-1.715,10.211-32.925.666-39.472.51-6.057-.143-14.367.574-20,3.008-5.371,2.319-9.571,7.425-14.168,10.9-6.3,4.77-12.316,9.593-16.957,16.2-6.366,9.053,3.238,6.491,9.643,5.944,14.62-1.25,28.841,2.233,42.935,5.593A259.136,259.136,0,0,1,515.217,328c6.782,2.739,13.921,5.257,20.3,8.818,3.363,1.878,8.817,6.474,12.676,5.149,3.539-1.214,7.065-11.358,9.211-15.41,4.167-7.865,8.549-15.6,12.852-23.385,8.125-14.711,16.174-29.3,23.791-44.284Zm-83.523,194.7c4.183-2.4,11-1.755,15.627-2.762a105.87,105.87,0,0,0,15.466-4.923,132.832,132.832,0,0,0,14.427-6.405c2.109-1.119,4.92-2.221,6.869-3.774,1.571-1.252,2.143-3.578,3.592-4.713,3.778-2.963,4.888-1.1,5.4-6.82.55-6.209-2.934-9.725-7.27-14.372a64.355,64.355,0,0,0-13.8-10.678c-2.158-1.294-4.463-2.749-6.665-3.984-3.331-1.871-7.8-4.98-9.544-.966,3.641.929,4.443,5.579,1.157,7.25-1.8.918-4.536-.43-6.571.546-3.142,1.506-6.164,5.709-8.852,7.972-8.826,7.431-17.267,10.217-28.82,10.814-24.139,1.245-49.417-1.509-73.092-5.086-6.093-.921-12.176.077-18.326-.143-5.984-.214-12.223-1.522-18.1-2.533-11.33-1.946-23.272-3.548-34.426-6.411a237.637,237.637,0,0,1-39.689-13.746c-12.149-5.567-25.879-14.764-39.525-15.473,5.823,5.7,14.548,7.9,21.552,11.652,5.725,3.067,14.677,5.037,18.293,10.092,2.354,3.29,3.535,9.333,5.313,13.191,1.967,4.269,3.782,8.606,5.6,12.94,1.829,4.36,3.734,8.722,5.219,13.213.919,2.786,1.315,8.561,3.487,10.467,3.465,3.04,15.061,4.389,19.731,5.4,8.718,1.889,18.662,1.638,27.555,1.769,3.675.054,7.379.556,10.89.624,4.931.094,4.461-.759,4.39-5.04-.04-2.571.011-7.246,3.45-5.129,2.343,1.443.731,7.833.3,10.1a456.657,456.657,0,0,0,59.642,2.284c19.212-.644,37.758-3.121,56.734-5.358Zm88.641-45.056c3.464-24.87,7.684-50.155,12.408-74.7,4.774-24.806,10.514-49.387,16.97-74.1q-6.4-1.531-12.794-3.059c-.159,5.207-1.919,9.73-2.67,14.913-1.036,7.154-3.017,14.1-4.2,21.232-2.252,13.555-6.427,26.817-10.1,40.035-3.748,13.475-5,27.358-8.444,40.9-2.839,11.157-4.289,23.447-5.873,34.917-3.845,27.827-9.323,55.708-13.492,83.548-3.91,26.1-4.3,52.735-4.077,79.081.138,16.085,2.592,32.124,2.464,48.23-.031,3.981.3,7.95.511,11.925.146,2.8-1.361,10.579-.083,12.928.809,1.487,4.283,2.859,5.513,4.924,1.946,3.267,2.356,7.173,5.481,9.646,2.533-10.217,1.336-23.7.782-34.128-.536-10.046.5-20.429.709-30.629.4-20.01,1.46-39.727,2.486-59.747,1.124-21.955,4.322-44.444,7.446-66.234,2.841-19.813,4.736-39.977,6.969-59.683Zm-92.7-311.89-4.12-.383c.2,2.894-.406,7.581,1.634,9.09,1.546,1.144,4.676.768,6.55,1.134,6.142,1.2,13.26,2.205,19.357.018,2.369-.85.848-2.181,4.11-1.628,3.93.668,2.5,1.29,3.63,3.741.874,1.892,1.324,5.112,2.317,7.383,1.328,3.04,4.019,8.479,2.869,11.989-1.118,3.412-5.291,4.443-7.064,8.307-1.319,2.873-1.007,7.049-1.693,10.213-.914,4.22-2.07,8.424-2.581,12.722-.643,5.415-.423,11.768,6.287,12.608,6.227.781,10.679-1.221,14.854-5.755,7.975-8.657,17.08-20.877,21.765-31.767.547-1.272,1.894-3.4,1.707-4.757-.371-2.694-.533.033-1.387-1.838-.815-1.789-2.094-3.412-2.846-5.4a104.552,104.552,0,0,1-5.707-22.156,61,61,0,0,1-.572-10.251c.028-1.179.736-4.719.313-5.526s-2.674-1.2-3.373-2.008c-1.3-1.5-3.524-5.754-4.96-6.88-1.767-1.384-5.72-.288-6.438-3.041C549.966,68.06,577.138,60.883,564.443,55c-9.477-4.39-24.014,17.8-27.328.339-.575-3.025.519-7.131-.807-9.9-1.466-3.064-5.458-4.209-8.246-5.7-3.558-1.9-7.152-3.854-10.609-5.936-2.372-1.427-5.789-5.216-8.313-5.563.994,5.143-.912,10.241-.943,15.374,5.468-1.48,9.231-1.511,14.628,1.12,2.571,1.252,12.254,8.359,7.348,11.777a60.5,60.5,0,0,0-12.658-5.769,22.713,22.713,0,0,0-5.789-1.325c-4.315-.087-3.707.365-5.327,3.618-1.562,3.134-1.226,11.308-4.654,13.309-3.545,2.069-.811-.827-3.838-.158-1.727.382-3.608,1.666-5.189,2.391,2.166,2.351,6.537,4.5,7.973,7.108,2.1,3.807,1.368,11.68,1.7,15.845,2.743-.982,5.63-1.022,8.411-1.751,2.613-.686,6.238-3.657,6.511.71.3,4.866-7.389,6.157-10.843,6.157Zm35.7,128.125c.214-4.205.448-8.409.916-12.6.316-2.812,2.986-10.969,1.476-13.439-1.641-2.687-7.142-2.857-9.789-3.5-5.075-1.237-9.942-2.25-15.1-3.067a123.072,123.072,0,0,0-13.994-1.126c-5.205-.235-6.5-1.617-7.646,4.12-.9,4.511-2.118,9.209-2.286,13.827-.158,4.335,1.151,8.1-3.145,11.019,9.433,0,21.719-8.4,30.328-.889,12.313,10.74-9.115,13.834-14.766,16.2,4.7,2.283,11.671,4.076,13.882,9.29,2.481,5.844-1.119,8.33-6.629,8.8.518,2.253,2.5,3.716,3.093,6.425.865,3.971-1.942,2.656,1.64,5.729,4.716,4.044,14.425,6.748,20.209,9.324q2.032.909,4.111,1.706,3.25,2.893,4.8-1.1c2.967-1.878,5.608-6.068,8.24-8.506a102.146,102.146,0,0,1,19.277-14.1c-2.885-1.194-6.335,1.5-9.1.191-2.237-1.062-1.395-2.995-2.734-4.441q.805-2.83-1.7-2.071a4.043,4.043,0,0,1-2.332-.424c-1.4-1.735-2.029-2.3-2.122-4.982-.1-2.842,1.548-3.846,2.18-6.121q3.081-2.1-.14-4.122a9.736,9.736,0,0,1-1.444-4.7c-.409-6.269,5.313-8.8,9.677-12.113-7.814-.859-7.516-10.023-2.109-14.03,5.6-4.154,17.47-2.453,24.246-1.516,1.41.194,5.217,2.011,6.642.852.874-.71.257-6.716.3-7.775.092-2.406.677-5.275.293-7.669-.8-5.012.9-2.488-2.71-2.627-8.587-.333-19.522,7.163-27.077,10.7-8.456,3.956-13.891,4.565-13.979,14.373-.084,9.288-2.689,18.542-3.826,27.681-.5,3.991-.851,24.728-8.157,17.076-2.832-2.968-1.017-7.533-.807-11.194.287-5.037.117-10.153.289-15.2ZM69.772,535.667c4.18.742,10.989-1.658,15.549-1.91a158.362,158.362,0,0,0,24-2.857c6.112-1.3,13.077-2.441,16.373-8.357,2.947-5.288,3.988-11.909,5.575-17.679.843-3.064,3.017-7.506,3.017-10.676,0-4.121-.556-3.309-4.853-5.564-5.439-2.854-10.731-6.83-16.6-8.449q-2.662-.52-5.327-1.02-3.448-2-3.9,1.965c-2.244,2.366-3.559,6.727-5.442,9.494A43.689,43.689,0,0,1,82.12,504.86a213.83,213.83,0,0,1-35.982,15.875C39.065,523.093,32.543,526.4,25.629,529c-5.539,2.083-13.182,2.717-17.437,7.353-4.8,5.231,2.578,7.133,6.679,10.669,3.36,2.9,3.426,3.563,8.022,2.156,3.425-1.048,6.46-3.052,9.749-4.411,11.265-4.653,24.9-7.749,37.129-9.1Zm257.443,82.971q-6.3-1.363-12.6-2.723c4.129,7.708,12.813,18.985,6.58,27.906-2.329,3.333-6.2,4.283-9.665,5.974-4.189,2.047-8.056,4.668-12.017,7.107-16.33,10.055-32.926,20.251-50.133,28.879,5.386,1.739,13.669,2.942,19.217,1.427,6.46-1.765,12.442-5.815,19.074-7.587a298.557,298.557,0,0,1,36.511-7.509c9.881-1.331,34.615,1.677,33.414-13.184-1.141-14.109-9.568-27.569-12.076-41.517-6.154,1.367-12.024,1.128-18.311,1.227ZM577.454,392.818c4.785-23.486,7.644-47.37,13.288-70.688,2.816-11.632,4.8-23.424,7.551-35.059,1.28-5.413,2.247-10.879,3.494-16.283,1.263-5.47,3.979-10.519,4.6-16.173-4.573,1.131-5.63,11.6-7.016,15.545a219.805,219.805,0,0,1-8.583,21.095c-5.194,11-10.7,21.613-16.564,32.277A267.638,267.638,0,0,1,553.8,355.871c-2.535,3.375-5.976,6.02-7.611,9.723-2.571,5.824-3.651,12.766-6.106,18.827,1.729.878,6.2,1.1,8.315,1.515a37.2,37.2,0,0,1,10.495,3.345c6.673,3.3,12.279,7.22,16.738,13.164a43.807,43.807,0,0,0,1.821-9.626Zm-186,179.192c-.079-22.619-.4-45.431-.029-67.882a153.152,153.152,0,0,1,1.514-19.146c.567-3.888,3.907-12.154,1.712-14.018-1.876-1.594-11.781-.544-14.212-.6-4.715-.109-9.415-.319-14.138-.674,0,8.383,3.275,17.9,4.8,26.194,1.419,7.735,2.584,15.513,3.755,23.284,2.534,16.827,3.255,33.886,6.006,50.758,2.493,15.3,5.781,30.532,7.595,45.828.995,8.4,3.008,16.318,4.573,24.709.817,4.376,3.8,22.4,7.55,24.171.794-6.466-2.447-14.272-3.028-20.81-.6-6.75-1.063-13.544-2.157-20.329-1.285-7.965-1.934-16.128-2.427-24.191-.3-4.934-.392-9.853-.819-14.784-.308-3.578-1.663-9-.69-12.509ZM509.332,269.549c.156-2.463-6.219-2.363-7.406-5.195-2.408-5.749,3.081-4.714,6.457-5.309-1.2-3.2-23.739-2.033-18.488-10.663,3.642-5.988,17.453,3.177,21.145-2.513,2.426-3.737-4.177-4.252-6.795-4.626-3.94-.564-13.223,1.26-12.917-3.853.385-6.424,18.431-10.858,23.492-12.745-.561-4.4-22.28,1.854-25.423,3.637-7.114,4.037-12.565,11.278-13.609,19.326-1.216,9.364,3.533,16.739,12.886,19.037,3.9.958,6.782,1.065,10.391,2.505,2.374.947,10.059,3.309,11.686.919l-1.417-.52Zm127.5-58.245c.36-4,3.726-11.527-.152-14.154-5.428-3.677-7.677,2.382-8.907,6.022-1.5,4.444-7.826,15.322-2.3,18.092,1.285.644,7.38-.106,8.455-.531q4.492,1.171,2.9-3.367ZM504.374,534.24c-.341-10.93,4.553-24.069,7.326-34.774,3.144-12.129,4.8-24.5,8.131-36.495-3.7.446-7.444.811-11.1,1.554-4.994,1.014-5.083.855-4.725,5.754.536,7.357-.166,14.57-.546,21.925-.761,14.725,1.093,29.692-.14,44.324q1.649.419,1.059-2.288ZM642.65,247.8a126.339,126.339,0,0,1,34.417,10.752c6.019,2.817,12.648,5.844,19.374,6.97,7.473,1.251,15.4.664,23.028,1.147,2.69.17,9.762,1.477,12.385-.106,2.6-1.568,2.395-4.224,2.517-7.391.316-8.145-3.372-16.12-6.687-23.428-2.844-6.269-4.994-11.057-9.407-16.45-5.667-6.927-10.6-14.4-15.909-21.632-4-5.45-8.045-10.821-12.124-16.265-2.918-3.9-2.779-5.239-7.177-4.8-4.33.43-8.69,2.989-12.769,4.346-6.054,2.014-13.385,3.119-18.906,6.339-3.569,2.082-3.729,2.465-3.687,6.1a18.239,18.239,0,0,0,3.154,10.159c4.206,5.5,11.177,8.405,17.159,11.147a59.659,59.659,0,0,1,9.533,6.022c3.319,2.358,10.016,3.748,12.556,6.435,7.395,7.828-6.067,6.281-9.828,6.044-8.117-.51-16.189-.432-24.367-.439-8.925-.006-17.779-.421-26.579-.131a18.287,18.287,0,0,1-14.406-6.8c-1.616-2.111-2.246-4.106-4.36-6.3-2.771-2.868-5.18-5.888-8.551-8.107-5.515-3.631-15.535-5.685-22.1-4.33,2.35.328,13.406,4.092,8.539,8.823-.592.576-7.7.953-9.25,1.663-2.789,1.281-6.306,3.143-7.942,5.848,4.764-.8,22.432-1.722,13.419,7.418-2.212,2.244-8.564,4.483-3.159,6.869,1.241.548,3.726-.228,5.325.267,2.376.735,4.317,2.7,6.543,3.751,6.313,2.978,15.015,4.815,21.6,4.162,9.11-.9,18.6.723,27.654,1.916ZM401.05,523.224c.311,13.131-.163,26.34.117,39.531.3,14.088,2.107,27.893,2.968,41.839.773,12.5,2.461,24.759,3.832,37.2.789,7.164,1.7,14.016,2.91,21.126,1.136,6.654,1.329,12.517-6.625,14.306-15.208,3.422-17.572-18.457-20.511-27.676-4.388-13.758-7.2-28.2-9.376-42.464-4.047-26.562-9.428-52.755-11.529-79.542-1.293-16.495-3.168-32.821-4.232-49.3-.209-3.23.615-8.205-2.221-9.644-1.707-.864-6.4-.871-8.557-1.5a128.8,128.8,0,0,1-17.385-6.981c4.154,21.721,5.526,43.334,8.642,65.244,1.653,11.626,4.817,23.673,7.558,35.117,2.841,11.857,3.472,24.625,6.75,36.225,1.444,5.113,2.666,7.2.571,12.443-2.571,6.442-.865,7.983,2.358,14.309,5.928,11.639,10.455,25.374,9.45,38.495-.82,10.716-8.917,16.325-18.946,19.217-12.546,3.616-25.683,3.188-38.3,7.294-11,3.577-22.169,6.219-32.848,10.941-4.306,1.9-8.4,4.162-13.179,4.512-6.557.477-10.979-3.329-17.173-4.122-3.871-.494-9.539,1.353-11.769-2.705-1.768-3.217.233-10.237,2.452-12.827,6.234-7.278,18.719-13.619,27.126-17.913a228.628,228.628,0,0,0,28.044-17.532c5.442-3.873,10.992-7.589,16.43-11.469,3.6-2.568,4.964-2.585,4.6-6.664-.293-3.253-1.759-6.409-2.016-9.74-.2-2.552.7-6.031-.508-7.7-.887-1.228-4.217-2.094-5.526-3.025-4.788-3.394-5.876-7.593-8.05-12.756-4.939-11.727-10.613-23.124-15.382-34.945-10.24-25.38-16.487-52.068-24.976-77.967-8.673-26.459-16.427-54.236-21.2-81.687-6.391,1.945-12.423,10.551-17.512,14.809C210.148,423.433,203.1,429,196.36,434.911c-11.053,9.693-22.245,19.119-31.379,30.726-4.4,5.591-8,11.607-11.988,17.481-2.3,3.393-4.447,7.234-6.94,10.462-.4.518-.411,1.582-.843,2.023-.95.969-2.762-.322-3.37.317-3.755,3.927-3.706,15.078-4.877,20.26-1.612,7.142-3.423,15.354-9,20.275-8.613,7.6-24.5,8.78-35.4,9.175-13.99.507-27.561,4.405-40.834,8.593-6.191,1.952-12.22,4.237-18.434,6.132-3.574,1.092-7.651,3.269-11.468,2.85-4.6-.5-8.237-4.377-11.609-7.256C4.825,551.343-.17,546.8,0,539.248c.195-8,4.527-14.035,11.352-18.007,13.2-7.681,27.953-12.6,42.176-17.912A128.284,128.284,0,0,0,68.86,496.3c7.363-3.872,15.84-7.032,22.373-12.144,1.927-1.509,9.006-6.13,9.61-8.513.079-.311-1.69-3.95-1.7-4.527-.018-1.485.861-3.093,1.4-4.364,3.4-8,9.112-15.7,13.475-23.248,7.992-13.819,16.015-27.71,25.281-40.706a603.465,603.465,0,0,1,61.635-73.9c10.921-11.026,20.358-23.534,31.433-34.408a59.048,59.048,0,0,1,14.426-10.61c6.027-3.116,12.791-3.727,19.7-4.679,16.74-2.3,30.72,2.648,46.437,6.957,14.858,4.073,29.732,7.509,44.672,11.752,16.408,4.659,32.648,9.128,49,14.206,8.739,2.713,17.73,4.379,26.511,6.982,4.228,1.252,20.213,9.1,23.738,6.523-11.1-5.211-22.481-9.96-34.362-13.106-3.5-.925-5.734.1-5.6-3.919.072-2.191,2.534-5.149,3.421-6.953,2.123-4.318,4.526-8.539,6.6-12.869-7.532,2.138-27.777,9.54-33.453,1.888-5.94-8.009-.981-23.712,2.742-31.554,9.718-20.471,26.245-37.555,42.349-52.986,3.484-3.336,10.993-7.694,12.849-11.943.565-1.292-.664-3.191.61-4.869.757-1,3.8-1.681,5.015-2.757,4.428-3.92,7.961-12.168,11.021-17.307,3.2-5.382,6.092-11.21,10.119-16.039,6.586-7.9,13.386-16.266,24.052-18.113,5.23-.905,10.787-.422,15.8-2.229,6.063-2.185,11.824-5.627,17.946-7.89-1.519-3.123-2.75-8.088-5.7-8.429-2.837-.329-7,2.109-10.246,2.092a68.053,68.053,0,0,1-13.367-1.688c-5.066-1-6.735-.82-8.581-6.315-1.937-5.756-1.449-12.442-1.432-18.421.008-2.922.587-6.548.338-9.416-.374-4.321-1.214-4.487-4.6-7.235-4.232-3.433-9.449-7.977-4.265-13.942,2.8-3.223,8.557-.717,11.038-4.18,2.527-3.528,2.4-12.389,3.174-16.533-7.79,3.829-4.934-10.486-4.935-13.93,0-5.012-3.36-14.026,1.475-18.2,2.247-1.936,3.916-.334,6.486-1.447,2.932-1.27,4.778-4.6,7.9-5.891,6.2-2.567,12.528.524,18.893.014,7.3-.585,14.471-1.713,21.812-.542,3.479.553,4.942,1.874,7.885,3.355,2.83,1.424,5.7,1.814,8.774,2.731,2.735.816,5.134,1.228,6.981,3.612,1.461,1.886.867,5.057,2.342,6.683,1.455,1.6,4.334,1.369,6.068,3.271,1.665,1.825,2.661,4.843,3.526,7.114,1.17,3.06,1.307,4.209,3.365,6.658,1.795,2.137,4.379,3.856,5.877,6.293,3.529,5.746,3.619,14.056,2.493,20.52-.382,2.2-3.573,7.891-3.074,9.764.475,1.783,3.467,1.314,4.822,2.441,1.171.974,2.2,5.315,3.124,5.58,1.995.572,4.455-3.367,5.966-3.957,2.626-1.027,3.725-2.081,5.18,1.79,1.078,2.873-.424,6.771-1.215,9.513-1.006,3.49-2.118,7.692-4.784,10.331-3.134,3.1-5.643,1.407-9.1,3.077-5.183,2.5-3.653,10.334-10.031,12.571-6.077,2.132-12.772-4.576-17.369-7.66.952,7.486,4.536,14.7,2.816,22.372,13.977-5.476,27.8-13.248,43.034-14.96,7.767-.874,15.613-1.908,22.945,1.316,8.582,3.774,13.84,12.1,19.649,19.016,10.917,13,22.119,25.636,32.6,39.054,9.611,12.309,17.714,26.571,28.293,38.1,10.726,11.688,18.822,30.65,17.647,46.835-.106,1.461-1.238,4.78-1.06,6.355.138,1.207,1.235,2.737,1.218,3.71-.059,3.275-1.142,5.161-4.264,6.977-5.412,3.152-13.475,4.747-19.591,5.529a106.893,106.893,0,0,1-26.206.041c-8.385-1.146-15.754-5.839-23.465-8.676a159.448,159.448,0,0,0-20.663-5.631c-3.92-.876-8.26-3.3-10.682-.954-2.225,2.157-2.686,13.225-3.2,16.168-5.623,31.9-12.3,62.716-18.223,94.453-6.707,35.972-11.293,71.93-15.958,108.207-4.24,32.976-5.625,66.326-6.574,99.272-.453,15.716-.518,31.263-.423,46.992.054,8.808,4.457,38.208-8.6,39.333-7.673.664-13.811-10.338-15.867-16.337a104.412,104.412,0,0,1-5.19-28.189c-1-19.169-2.3-38.352-3.076-57.528-.838-20.776.228-41.935,1.935-62.642,1.719-20.846,6.05-41.388,7.379-62.265-3.985,5.687-5.261,6.756-11.9,9.232-6.946,2.593-13.628,5.661-20.636,8.078-2.384.822-6.106,1.338-8.06,2.684-3.607,2.484-1.237-.334-2.389,4.5-1.23,5.166-1.461,11.367-1.788,16.675-1.536,24.91-8.436,49.643-11.619,74.422-.768,5.983.328,31.38-9.968,23.375-7.929-6.164-7.772-25.525-8.9-34.594-1.5-12.089-.665-24.518-.428-36.68.27-13.851.5-28.379,3.808-41.9-5.913-1.012-14.138,1.745-20.091,2.209-5.154.4-10.29.656-15.415.938-12.222.671-24.81,1.207-37.238.967-2.262-.044-17.043-2.113-18.932-.445-.614.542-.8,7.994-.916,8.9-.435,3.424-1.025,6.845-1.465,10.251-1.4,10.886-2.671,22.575-2.269,33.456Z" transform="translate(172.995 65.043)" fill-rule="evenodd"/>
    <path id="Path_54" data-name="Path 54" d="M620.551,626.676c9.327,3.645,19.227,4.968,28.633,8.289,8.409,2.969,16.218,6.96,24.5,9.977.485-3.841.742-10.346-.677-13.966-2.008-5.126-7.293-5.252-12.5-7.078-12.665-4.444-25.989-5.38-38.562-10.572,2.153,4.144,1.191,9.631-1.395,13.35m161.01-13.4c-20.144.591-39.4,5.279-59.249,8.178-9.661,1.41-19.331,2.668-29,3.985-3.721.505-10.5-.091-13.208,3.131-2.242,2.669.215,11.777-.781,15.688,4.072.3,11.3-3.5,15.72-4.133,6.881-.978,13.672-2.349,20.625-2.785,11.012-.694,21.832-1.284,32.825-2.51,11.179-1.246,22-3.562,33.264-4.408,5.478-.412,7.681.615,8-5.168.127-2.261.437-6.045-.2-8.275q1.52-4.112-2.7-3.993a15.879,15.879,0,0,0-5.306.29M742.6,594.815c5.448-.51,10.918-1.244,16.379-1.55,1.107-.063,6.724.275,7.642-.754,1.3-1.456-.148-6.784-.387-8.432-.81-5.605-1.7-8.865-7.819-8.877-5.16-.012-10.5,1.079-15.642,1.582-23.333,2.287-46.549,3.253-69.624,7.6,1.4,5.981,3,12.153,1.32,18.27,11.07.571,23.223-1.559,34.041-3.744a261.444,261.444,0,0,1,34.09-4.089M705.67,538.5c-8.336.038-17.147,3.709-25.373,2.891-.123,1.53,2.51.26,3.237,1.692q2.33.006,1.62,1.523a1.085,1.085,0,0,1-1.06,1.212c-.363.033-.726.063-1.087.094q-2.386.077-.781,3.221c-.459,2.6.23,5.9.33,8.5,14.783-2.012,29.145-4.1,44.033-5,7.028-.424,14.051-.422,21.071-1,7.724-.636,16.154.728,23.7-.718,4.036-.773,3.613-.719,3.32-5.969-.18-3.189-.113-6.975-2.709-9.3-4.336-3.885-14.211-1.64-19.4-1.5A354.549,354.549,0,0,0,705.67,538.5m8.534,74.961c22.333-2.028,44.5-6.47,66.957-6.47-1.588-1.587-5.047-2-7.023-2.862-2.254-.986-4.38-3.087-6.583-3.949-4.419-1.73-8.916.674-13.455,1.713-10.949,2.507-22.183,2.593-33.15,5.052a321.317,321.317,0,0,1-34.369,6.177c-5.5.615-11.4,1.862-16.83.41-.441-.316-.884-.631-1.325-.946q-.712-3.033-3.955-1.62c-2.746-.523-6.242.152-9.007.221-.112,1.1,10.1,4.567,12.047,5.424,4.692,2.066,7.873,3.578,12.884,2.693,11.283-1.993,22.382-4.372,33.808-5.844m-78.561-65.293c.873,3.4,4.537,1.855,7.692,2.229,4.235.5,8.448,1.963,12.55,3.064,7.449,2,14.9,3.976,22.318,6.092-.293-3,.37-9.815-1.213-12.473-1.661-2.786-9.537-4.007-13.2-4.857-9.244-2.139-19.119-.922-28.51-.471q.249,3.2.367,6.416m88.8,21.285c8.771-.743,17.552-1.32,26.348-1.63,10.056-.352,2.747-1.959,2.535-8.092-13.218,2.109-26.552,2.525-39.729,4.327-10.916,1.5-23.921,5.4-35.056,3.3-5.252-.988-10.614-1.369-16.2-1.928-5.271-.527-10.244-2.983-15.45-3.592-5.844-.685-11.815,2.6-17.63,3.468-2.465.368-3.037,2.039-4.2-.927-1.207-3.077,2.25-5.592,3.611-7.431,1.589-2.149.929,1.34,1.812-2.016.247-.94-.423-3.3-.546-4.317-.311-2.561-1.116-5.34-1.242-7.9-.115-2.348-.136-5.931,2.413-7.3,1.556-.836,2.658.383,4.014.147a105.741,105.741,0,0,1,33.77-.215c11.637,1.925,21.653-3.172,33.124-5.24,13.455-2.424,27.052-2.788,40.624-3.812,11.6-.875,32.807-5.417,37.228,9.405,1.252,4.2,3.076,15.761-.293,19.335-4.419,4.693-14.653,3.2-20.368,4.415.855,2.432,3.4,4.085,2.52,6.981,8.009.378,9.425,7.943,10.679,15.006,1.3,7.307-1.234,10.211,5.749,14.016,9.733,5.3,20.043,10.657,19.852,23.287-.1,6.35-.806,15.926-7.326,19.22-6.378,3.223-16.763,2.678-23.793,3.848-13.612,2.267-27.272,4.926-40.967,6.287-14.583,1.45-29.407,2.639-44.014,3.287-7.958.355-14.834,1.557-22.52-1.122-7.557-2.633-14.949-4.555-22.746-6.511-7.7-1.928-31.26-4.525-24.394-17.689,1.1-2.106,4.854-3.781,5.46-5.773.978-3.213-2.326-5.72-2.188-8.623.252-5.311,6.245-5.978,10.383-5.978-7.092-4.436,2.406-9.688,2.349-13.454-.1-6.635-8.352-10.942-8.819-16.5-1.135-13.536,41.8.558,48.413,3.487-5.087,7.543-28.687,1.016-35.716-.128a29.335,29.335,0,0,1,2.153,7.362c.225,2.1-.578,4.5.157,6.618,1.16,3.345,1.12,2.7,5.227,3.616,3.038.674,6.043,1.454,9.071,2.168,4.652,1.1,11.969,4.042,16.577,3.882,4.043-.141,3.244,1.113,3.985-3.377.4-2.413-.281-4.978-.688-7.342-.849-4.954-2.09-9.643,2.236-13.2,4.126-3.39,12.821-5,17.881-6.2,11.23-2.653,24.192-3.3,35.715-3.166" transform="translate(172.995 65.043)" fill="#fff" stroke="#000" stroke-width="1" fill-rule="evenodd"/>
    <path id="Path_55" data-name="Path 55" d="M777.88,484.893a171.42,171.42,0,0,0-36.929-1.928q1,4.581,2.007,9.158c11.561-2.977,23.289-4.722,34.922-7.231ZM678.7,508.582c-4.891-.358-1.489,1.829-.281,5.031,1.485,3.933,1.166,8.906,1.507,13.046,14.311-5.457,30.962-8.651,46.178-10.488,7.216-.87,14.537-1.12,21.793-1.492,2.145-.11,9.891.788,11.46-.655,1.165-1.073.348-6.994-.772-8.3-6.09-7.1-29.633-.969-38.149-.333-13.965,1.043-27.674,3.538-41.736,3.192Zm20.326-19.025c12.672,1.217,24.907,1.1,37.58,3-.961-8.055.188-10.111-8.95-10.538-8.143-.38-16.261-.688-24.366-.684-18.227.01-36.41-.338-54.657-.338v8.186c16.875-1.728,33.484,1.393,50.393.375Zm-60.935,30.1c8-.034,15.555,2.983,23.554,3.766,4.787.468,3.283,1.062,6.6,3.465,5.172,3.744,6.662,1.75,6.013-3.338-2.2-17.209-23.987-13.35-36.543-14.307.825,4.1-1.072,7.584-3.866,10.414Zm86.442-22.1c-11.5.187-23.02.84-34.442.6-5.113-.107-11.737-1.12-16.748-.249-3.671.638-6.741,2.508-10.767,3.2,5.914,3.185,8.912,1.033,15.13.308s12.517-.709,18.754-1.086c10.244-.621,21.162-3.074,31.255-2.407q.276-2.133-3.181-.371ZM633.3,534.837c-5.278-.011,1.983-6.014,2.937-6.609-5.843,0-7.258-3.5-5.565-9.134,1.6-5.3,2.776-3.68-1.238-8.1-3.021-3.325-3.478-5.775.083-9.493,3.624-3.782,10.964-2.712,14.175-5.834,5.467-5.313-1.588-15.9,5.987-19.968,5.12-2.75,13.374-2.409,19.028-2.991,5.464-.561,11.12-.67,16.621-.744,11.99-.164,24.445,1.847,36.383,2.953,4.352.4,9.245,2.161,13.533,2.165,4.372.005,8.953-.97,13.467-.858,5.249.132,10.305-.255,15.718.607,4.147.661,13.83,1.008,17,4.091,10.562,10.274-14.485,14.992-18.795,16.146,4.386,4.805,4.2,11.157,3.543,17.206,2.088,0,5.687-.908,6.768,1.433,1.342,2.908-3.626,3.663-4.8,4-6.758,1.952-14.666,1.417-21.631,2.126-13.923,1.417-27.678,2.234-41.457,4.872-6.715,1.285-13.389,2.876-20.1,4.128q-1.738.325-3.493.521-2.694-.231-1.743,3.386c-1.863.91-8.807-1.357-10.954-1.7-12.293-1.994-23.289-1.166-35.467,1.8Z" transform="translate(172.995 65.043)" fill="#fff" stroke="#000" stroke-width="1" fill-rule="evenodd"/>
    <path id="Path_56" data-name="Path 56" d="M881.519,654.2c-7.929,6.239-15.3,12.127-23.885,17.548,6.069-.189,26.255-9.869,23.885-17.548m-3.1-10.169c-4.327-3.718-8.625-3.338-13.982-4.465-4.932-1.038-9.725-2.825-14.647-4.015-3.863-.933-7.686-2.2-11.535-3.077-5.435-1.246-5.971.125-10.97,2.973-17.726,10.1-37.563,17.052-56.234,25.251,5.482,4.827,17.814,5.034,24.666,6.574a112.283,112.283,0,0,1,14.554,4.435c4.461,1.657,11.649,5.466,16.354,5.593,3.972.108,7.2-3.8,10.62-5.906,4.5-2.77,8.975-5.492,13.508-8.193,9.593-5.716,18.562-12.72,27.666-19.17m-80.11,40.921c-2.046-1.969-8.206-1.882-10.772-2.483-5.054-1.181-10.034-2.408-15.155-3.295-8.311-1.438-21.441-2.081-22.343-12.864-.752-8.961,10.075-11.087,16.408-14.123,9.523-4.567,19.239-8.781,29-12.809,9.155-3.775,18.444-6.967,27.766-10.229,1.818-.636,3.294-.549,4.778-2,1.171-1.148.81-3.378,2.093-4.577,2.939-2.748,6.751-1.3,10.282-.6a146.02,146.02,0,0,1,23.99,6.666c7.945,3.083,15.051,3.727,16.959,12.734,4.062-1.906,7.118-2.183,6.632,3.418-.142,1.646-1.337,3.435-1.624,5.132-.422,2.5.318,5.14-.1,7.648-1.52,9.121-13.818,15.877-21.439,19.459-9.4,4.416-21.522,10.94-32.014,11.8-11.18.919-23.364-3.471-34.463-3.877" transform="translate(172.995 65.043)" fill="#fff" stroke="#000" stroke-width="1" fill-rule="evenodd"/>
    <path id="Path_57" data-name="Path 57" d="M656,533.634l-10,.063a28.14,28.14,0,0,1,10-.063" transform="translate(172.995 65.043)" fill-rule="evenodd"/>
    <path id="Path_58" data-name="Path 58" d="M461,180.957l-3,5c.341-2.148,1.1-3.989,3-5" transform="translate(172.995 65.043)" fill-rule="evenodd"/>
    <path id="Path_59" data-name="Path 59" d="M656,581.431q3.006.027,6,.053c-2.008-.016-4-.034-6-.053" transform="translate(172.995 65.043)" fill-rule="evenodd"/>
    <path id="Path_60" data-name="Path 60" d="M702,472.647l-7-.379,7,.379" transform="translate(172.995 65.043)" fill-rule="evenodd"/>
    <path id="Path_61" data-name="Path 61" d="M662,533.684l-6-.056a10.822,10.822,0,0,1,6,.056" transform="translate(172.995 65.043)" fill-rule="evenodd"/>
    <path id="Path_62" data-name="Path 62" d="M741.589,249.957q-.084-3-.169-6,.087,3,.169,6" transform="translate(172.995 65.043)" fill-rule="evenodd"/>
    <path id="Path_63" data-name="Path 63" d="M401.566,551.957q-.061-2.5-.123-5,.063,2.5.123,5" transform="translate(172.995 65.043)" fill-rule="evenodd"/>
    <path id="Path_64" data-name="Path 64" d="M456,470.455q2.007,0,4,.005c-1.339,0-2.67,0-4-.005" transform="translate(172.995 65.043)" fill-rule="evenodd"/>
    <path id="Path_65" data-name="Path 65" d="M635,111.276l-5,.362,5-.362" transform="translate(172.995 65.043)" fill-rule="evenodd"/>
    <path id="Path_66" data-name="Path 66" d="M761,476.477l-6-.039,6,.039" transform="translate(172.995 65.043)" fill-rule="evenodd"/>
    <path id="Path_67" data-name="Path 67" d="M592.579,599.957c-.05-1.335-.1-2.672-.149-4q.074,2,.149,4" transform="translate(172.995 65.043)" fill-rule="evenodd"/>
    <path id="Path_68" data-name="Path 68" d="M594.559,548.957q-.054-2-.108-4,.055,2,.108,4" transform="translate(172.995 65.043)" fill-rule="evenodd"/>
    <path id="Path_69" data-name="Path 69" d="M560.433,571.957q.072,2,.144,4c-.048-1.337-.1-2.667-.144-4" transform="translate(172.995 65.043)" fill-rule="evenodd"/>
    <path id="Path_70" data-name="Path 70" d="M464,469.478l3-.041-3,.041" transform="translate(172.995 65.043)" fill-rule="evenodd"/>
    <path id="Path_71" data-name="Path 71" d="M754,521.522l3-.13-3,.13" transform="translate(172.995 65.043)" fill-rule="evenodd"/>
    <path id="Path_72" data-name="Path 72" d="M562.419,603.957c.057,1.335.114,2.671.171,4-.057-1.339-.114-2.669-.171-4" transform="translate(172.995 65.043)" fill-rule="evenodd"/>
    <path id="Path_73" data-name="Path 73" d="M669.606,596.957q-.1,2-.2,4,.1-2,.2-4" transform="translate(172.995 65.043)" fill-rule="evenodd"/>
    <path id="Path_74" data-name="Path 74" d="M554.349,1.1l-4.24-.539c1.4.324,2.936-.877,4.24.539" transform="translate(172.995 65.043)" fill-rule="evenodd"/>
    <path id="Path_75" data-name="Path 75" d="M493.562,513.957q-.057,2-.115,4,.055-2.007.115-4" transform="translate(172.995 65.043)" fill-rule="evenodd"/>
    <path id="Path_76" data-name="Path 76" d="M407.608,635.957q-.1-2-.206-4,.1,2,.206,4" transform="translate(172.995 65.043)" fill-rule="evenodd"/>
    <path id="Path_77" data-name="Path 77" d="M731,523.488c1.005-.021,2.007-.043,3-.062-1.006.022-2,.042-3,.062" transform="translate(172.995 65.043)" fill-rule="evenodd"/>
    <path id="Path_78" data-name="Path 78" d="M391.494,280.957c.008,1.336.015,2.671.021,4q-.012-2.005-.021-4" transform="translate(172.995 65.043)" fill-rule="evenodd"/>
    <path id="Path_79" data-name="Path 79" d="M370.513,580.957c0,1.335-.009,2.672-.016,4q.006-2.005.016-4" transform="translate(172.995 65.043)" fill-rule="evenodd"/>
    <path id="Path_80" data-name="Path 80" d="M619.748,572.957c-.036,1.335-.071,2.671-.109,4a4.878,4.878,0,0,1,.109-4" transform="translate(172.995 65.043)" fill-rule="evenodd"/>
    <path id="Path_81" data-name="Path 81" d="M433,471.457h0" transform="translate(172.995 65.043)" fill-rule="evenodd"/>
    <path id="Path_82" data-name="Path 82" d="M593.521,566.957q-.017-2-.032-4c.011,1.338.021,2.668.032,4" transform="translate(172.995 65.043)" fill-rule="evenodd"/>
    <path id="Path_83" data-name="Path 83" d="M798,685.416l3,.083-3-.083" transform="translate(172.995 65.043)" fill-rule="evenodd"/>
    <path id="Path_84" data-name="Path 84" d="M762,558.475l2-.035-2,.035" transform="translate(172.995 65.043)" fill-rule="evenodd"/>
    <path id="Path_85" data-name="Path 85" d="M737,561.459l2,0-2,0" transform="translate(172.995 65.043)" fill-rule="evenodd"/>
    <path id="Path_86" data-name="Path 86" d="M347.565,567.957q-.06-1.5-.12-3,.061,1.5.12,3" transform="translate(172.995 65.043)" fill-rule="evenodd"/>
    <path id="Path_87" data-name="Path 87" d="M757,567.2c-.868.879-1.986.36-3,.416l3-.416" transform="translate(172.995 65.043)" fill-rule="evenodd"/>
    <path id="Path_88" data-name="Path 88" d="M638,535.2a4.373,4.373,0,0,1-4,.043l4-.043" transform="translate(172.995 65.043)" fill-rule="evenodd"/>
    <path id="Path_89" data-name="Path 89" d="M725,569.474l-4-.034,4,.034" transform="translate(172.995 65.043)" fill-rule="evenodd"/>
    <path id="Path_90" data-name="Path 90" d="M669,534.639l-4-.363,4,.363" transform="translate(172.995 65.043)" fill-rule="evenodd"/>
    <path id="Path_91" data-name="Path 91" d="M363.544,529.957q-.037,1.5-.079,3,.037-1.506.079-3" transform="translate(172.995 65.043)" fill-rule="evenodd"/>
    <path id="Path_92" data-name="Path 92" d="M593.428,583.957c.052-1,.1-2,.154-3-.051,1-.1,2-.154,3" transform="translate(172.995 65.043)" fill-rule="evenodd"/>
    <path id="Path_93" data-name="Path 93" d="M731,526.289l-4,.336,4-.336" transform="translate(172.995 65.043)" fill-rule="evenodd"/>
    <path id="Path_94" data-name="Path 94" d="M401.546,522.957c-.027-1-.055-2-.083-3,.027,1,.056,2,.083,3" transform="translate(172.995 65.043)" fill-rule="evenodd"/>
    <path id="Path_95" data-name="Path 95" d="M568.623,445.957q-.119,1.5-.236,3,.118-1.5.236-3" transform="translate(172.995 65.043)" fill-rule="evenodd"/>
    <path id="Path_96" data-name="Path 96" d="M751,476.218a4.334,4.334,0,0,1-4-.007l4,.007" transform="translate(172.995 65.043)" fill-rule="evenodd"/>
    <path id="Path_97" data-name="Path 97" d="M592.593,614.957q-.09-1.5-.177-3c.059,1,.117,2,.177,3" transform="translate(172.995 65.043)" fill-rule="evenodd"/>
    <path id="Path_98" data-name="Path 98" d="M592.568,622.957q-.063-1.5-.126-3,.065,1.5.126,3" transform="translate(172.995 65.043)" fill-rule="evenodd"/>
    <path id="Path_99" data-name="Path 99" d="M403.484,490.957c.015-1,.028-2,.042-3-.015,1-.028,2-.042,3" transform="translate(172.995 65.043)" fill-rule="evenodd"/>
    <path id="Path_100" data-name="Path 100" d="M688,650.485c.669-.019,1.339-.038,2-.055-.673.02-1.336.037-2,.055" transform="translate(172.995 65.043)" fill-rule="evenodd"/>
    <path id="Path_101" data-name="Path 101" d="M365.586,658.957q-.081-1.5-.162-3,.082,1.5.162,3" transform="translate(172.995 65.043)" fill-rule="evenodd"/>
    <path id="Path_102" data-name="Path 102" d="M582,667.437c.67.014,1.34.026,2,.041l-2-.041" transform="translate(172.995 65.043)" fill-rule="evenodd"/>
    <path id="Path_103" data-name="Path 103" d="M727,475.609l-4-.3,4,.3" transform="translate(172.995 65.043)" fill-rule="evenodd"/>
    <path id="Path_104" data-name="Path 104" d="M734,476.665l-3-.415Z" transform="translate(172.995 65.043)" fill-rule="evenodd"/>
    <path id="Path_105" data-name="Path 105" d="M582.421,581.957q.086-4.5.168-9-.086,4.5-.168,9" transform="translate(172.995 65.043)" fill-rule="evenodd"/>
    <path id="Path_106" data-name="Path 106" d="M504.453,471.957q.051,3.5.1,7-.051-3.506-.1-7" transform="translate(172.995 65.043)" fill-rule="evenodd"/>
    <path id="Path_107" data-name="Path 107" d="M332,618.426c-1.669.02-3.341.04-5,.062l5-.062" transform="translate(172.995 65.043)" fill-rule="evenodd"/>
    <path id="Path_108" data-name="Path 108" d="M469,419.5c-1.671-.026-3.341-.053-5-.077,1.675.027,3.338.052,5,.077" transform="translate(172.995 65.043)" fill-rule="evenodd"/>
    <path id="Path_109" data-name="Path 109" d="M426,458.46l5-.005-5,.005" transform="translate(172.995 65.043)" fill-rule="evenodd"/>
    <path id="Path_110" data-name="Path 110" d="M448,418.424l-4,.066,4-.066" transform="translate(172.995 65.043)" fill-rule="evenodd"/>
    <path id="Path_111" data-name="Path 111" d="M340,618.468l-4-.021,4,.021" transform="translate(172.995 65.043)" fill-rule="evenodd"/>
    <path id="Path_112" data-name="Path 112" d="M520,107.631l5-.347-5,.347" transform="translate(172.995 65.043)" fill-rule="evenodd"/>
    <path id="Path_113" data-name="Path 113" d="M542.412,224.957q.093-2.5.186-5-.094,2.5-.186,5" transform="translate(172.995 65.043)" fill-rule="evenodd"/>
    <path id="Path_114" data-name="Path 114" d="M502,240.456l-3,0,3,0" transform="translate(172.995 65.043)" fill-rule="evenodd"/>
    <path id="Path_115" data-name="Path 115" d="M417,415.441l-3,.033c1.007-.01,2-.021,3-.033" transform="translate(172.995 65.043)" fill-rule="evenodd"/>
    <path id="Path_116" data-name="Path 116" d="M394,456.295l4,.325-4-.325" transform="translate(172.995 65.043)" fill-rule="evenodd"/>
    <path id="Path_117" data-name="Path 117" d="M391.473,506.957q.031-2,.063-4-.031,2-.063,4" transform="translate(172.995 65.043)" fill-rule="evenodd"/>
    <path id="Path_118" data-name="Path 118" d="M506,453.653l4-.392-4,.392" transform="translate(172.995 65.043)" fill-rule="evenodd"/>
    <path id="Path_119" data-name="Path 119" d="M597.386,429.957q.12-2,.238-4-.118,2-.238,4" transform="translate(172.995 65.043)" fill-rule="evenodd"/>
    <path id="Path_120" data-name="Path 120" d="M615,245.613l4-.311-4,.311" transform="translate(172.995 65.043)" fill-rule="evenodd"/>
    <path id="Path_121" data-name="Path 121" d="M479,420.472l-3-.029,3,.029" transform="translate(172.995 65.043)" fill-rule="evenodd"/>
    <path id="Path_122" data-name="Path 122" d="M391.578,581.957q-.075-1.5-.147-3,.072,1.5.147,3" transform="translate(172.995 65.043)" fill-rule="evenodd"/>
    <path id="Path_123" data-name="Path 123" d="M503.7,530.957c2.186,5.419.958,1.582,1.014,2.833q-2.793.375-1.014-2.833" transform="translate(172.995 65.043)" fill-rule="evenodd"/>
    <path id="Path_124" data-name="Path 124" d="M412,415.512l-3-.109,3,.109" transform="translate(172.995 65.043)" fill-rule="evenodd"/>
    <path id="Path_125" data-name="Path 125" d="M616.41,313.957q.094-2,.189-4-.094,2-.189,4" transform="translate(172.995 65.043)" fill-rule="evenodd"/>
    <path id="Path_126" data-name="Path 126" d="M391.51,571.957q0-2-.01-4,0,2.006.01,4" transform="translate(172.995 65.043)" fill-rule="evenodd"/>
    <path id="Path_127" data-name="Path 127" d="M391.4,541.957q.1-1.5.209-3-.105,1.5-.209,3" transform="translate(172.995 65.043)" fill-rule="evenodd"/>
    <path id="Path_128" data-name="Path 128" d="M599.365,410.957q.139-1.5.28-3-.14,1.5-.28,3" transform="translate(172.995 65.043)" fill-rule="evenodd"/>
    <path id="Path_129" data-name="Path 129" d="M378.371,544.957c.089,1,.179,2,.268,3q-.135-1.5-.268-3" transform="translate(172.995 65.043)" fill-rule="evenodd"/>
    <path id="Path_130" data-name="Path 130" d="M376.357,536.957c.1,1,.2,2,.3,3q-.149-1.5-.3-3" transform="translate(172.995 65.043)" fill-rule="evenodd"/>
    <path id="Path_131" data-name="Path 131" d="M576.393,399.957q.113-1.5.224-3-.114,1.5-.224,3" transform="translate(172.995 65.043)" fill-rule="evenodd"/>
    <path id="Path_132" data-name="Path 132" d="M66,535.615q2-.157,4-.315l-4,.315" transform="translate(172.995 65.043)" fill-rule="evenodd"/>
    <path id="Path_133" data-name="Path 133" d="M567.562,559.957c-.039,1-.078,2.006-.115,3,.039-1,.077-2,.115-3" transform="translate(172.995 65.043)" fill-rule="evenodd"/>
    <path id="Path_134" data-name="Path 134" d="M583.393,562.957q.111-1.5.223-3-.113,1.5-.223,3" transform="translate(172.995 65.043)" fill-rule="evenodd"/>
    <path id="Path_135" data-name="Path 135" d="M577.347,395.957q.157-1.5.316-3-.157,1.5-.316,3" transform="translate(172.995 65.043)" fill-rule="evenodd"/>
    <path id="Path_136" data-name="Path 136" d="M74,534.654l4-.393-4,.393" transform="translate(172.995 65.043)" fill-rule="evenodd"/>
    <path id="Path_137" data-name="Path 137" d="M498,419.446l-2,.022,2-.022" transform="translate(172.995 65.043)" fill-rule="evenodd"/>
    <path id="Path_138" data-name="Path 138" d="M391.51,532.957q0-1.5-.01-3c0,1,.007,2,.01,3" transform="translate(172.995 65.043)" fill-rule="evenodd"/>
    <path id="Path_139" data-name="Path 139" d="M585.583,530.957a3.079,3.079,0,0,1,.156-3q-.078,1.5-.156,3" transform="translate(172.995 65.043)" fill-rule="evenodd"/>
    <path id="Path_140" data-name="Path 140" d="M568.547,511.957c-.028,1-.058,2-.085,3,.029-1,.057-2,.085-3" transform="translate(172.995 65.043)" fill-rule="evenodd"/>
    <path id="Path_141" data-name="Path 141" d="M569.411,610.957c.062,1,.125,2,.187,3q-.093-1.5-.187-3" transform="translate(172.995 65.043)" fill-rule="evenodd"/>
    <path id="Path_142" data-name="Path 142" d="M643,247.244q1.5.214,3,.427l-3-.427" transform="translate(172.995 65.043)" fill-rule="evenodd"/>
    <path id="Path_143" data-name="Path 143" d="M639,247.337c1.342.081,2.816-.564,4,.381Z" transform="translate(172.995 65.043)" fill-rule="evenodd"/>
    <path id="Path_144" data-name="Path 144" d="M468,458.467l4-.02-4,.02" transform="translate(172.995 65.043)" fill-rule="evenodd"/>
    <path id="Path_145" data-name="Path 145" d="M498,246.284l4,.347-4-.347" transform="translate(172.995 65.043)" fill-rule="evenodd"/>
    <path id="Path_146" data-name="Path 146" d="M432,458.2l4,.018a4.152,4.152,0,0,1-4-.018" transform="translate(172.995 65.043)" fill-rule="evenodd"/>
    <path id="Path_147" data-name="Path 147" d="M395.619,625.957q-.114-1.5-.229-3c.077,1,.153,2,.229,3" transform="translate(172.995 65.043)" fill-rule="evenodd"/>
    <path id="Path_148" data-name="Path 148" d="M541.483,247.957q.023-1.5.044-3-.023,1.5-.044,3" transform="translate(172.995 65.043)" fill-rule="evenodd"/>
    <path id="Path_149" data-name="Path 149" d="M457,458.619l4-.323-4,.323" transform="translate(172.995 65.043)" fill-rule="evenodd"/>
    <path id="Path_150" data-name="Path 150" d="M570.471,634.957q.033,1.5.067,3c-.022-1-.045-2-.067-3" transform="translate(172.995 65.043)" fill-rule="evenodd"/>
    <path id="Path_151" data-name="Path 151" d="M574,222.648l4-.381-4,.381" transform="translate(172.995 65.043)" fill-rule="evenodd"/>
    <path id="Path_152" data-name="Path 152" d="M591.368,477.957q.138-1.5.274-3-.137,1.5-.274,3" transform="translate(172.995 65.043)" fill-rule="evenodd"/>
    <path id="Path_153" data-name="Path 153" d="M637.39,210.957q.116-1.5.229-3-.114,1.5-.229,3" transform="translate(172.995 65.043)" fill-rule="evenodd"/>
    <path id="Path_154" data-name="Path 154" d="M542.476,124.957c.019,1,.037,2,.058,3q-.029-1.5-.058-3" transform="translate(172.995 65.043)" fill-rule="evenodd"/>
    <path id="Path_155" data-name="Path 155" d="M507,106.291l4,.333-4-.333" transform="translate(172.995 65.043)" fill-rule="evenodd"/>
    <path id="Path_156" data-name="Path 156" d="M307,674.653l4-.392-4,.392" transform="translate(172.995 65.043)" fill-rule="evenodd"/>
    <path id="Path_157" data-name="Path 157" d="M509,96.458l-2,0c.672,0,1.336,0,2,0" transform="translate(172.995 65.043)" fill-rule="evenodd"/>
    <path id="Path_158" data-name="Path 158" d="M263,687.677a4.723,4.723,0,0,1,4,.005l-4-.005" transform="translate(172.995 65.043)" fill-rule="evenodd"/>
    <path id="Path_159" data-name="Path 159" d="M782,629.636l7-.358-7,.358" transform="translate(172.995 65.043)" fill-rule="evenodd"/>
    <path id="Path_160" data-name="Path 160" d="M782,612.411l-4,.092,4-.092" transform="translate(172.995 65.043)" fill-rule="evenodd"/>
    <path id="Path_161" data-name="Path 161" d="M762,592.578l5-.381c-1.555.977-3.333.254-5,.381" transform="translate(172.995 65.043)" fill-rule="evenodd"/>
    <path id="Path_162" data-name="Path 162" d="M743,594.638l5-.362-5,.362" transform="translate(172.995 65.043)" fill-rule="evenodd"/>
    <path id="Path_163" data-name="Path 163" d="M715,612.613l4-.312-4,.312" transform="translate(172.995 65.043)" fill-rule="evenodd"/>
    <path id="Path_164" data-name="Path 164" d="M722,612.616l4-.317-4,.317" transform="translate(172.995 65.043)" fill-rule="evenodd"/>
    <path id="Path_165" data-name="Path 165" d="M727,611.634l4-.354-4,.354" transform="translate(172.995 65.043)" fill-rule="evenodd"/>
    <path id="Path_166" data-name="Path 166" d="M734,577.448c-1,.007-2.006.014-3,.018,1.007-.008,2-.013,3-.018" transform="translate(172.995 65.043)" fill-rule="evenodd"/>
    <path id="Path_167" data-name="Path 167" d="M759,632.539l4-.338c-1.244.874-2.65.371-4,.338" transform="translate(172.995 65.043)" fill-rule="evenodd"/>
    <path id="Path_168" data-name="Path 168" d="M721,552.648l4-.382-4,.382" transform="translate(172.995 65.043)" fill-rule="evenodd"/>
    <path id="Path_169" data-name="Path 169" d="M716,536.459l-3,0,3,0" transform="translate(172.995 65.043)" fill-rule="evenodd"/>
    <path id="Path_170" data-name="Path 170" d="M706,538.453c-.669,0-1.339.007-2,.009l2-.009" transform="translate(172.995 65.043)" fill-rule="evenodd"/>
    <path id="Path_171" data-name="Path 171" d="M682,541.239c-.336.822-2.1.717-2-.127l2,.127" transform="translate(172.995 65.043)" fill-rule="evenodd"/>
    <path id="Path_172" data-name="Path 172" d="M635.444,544.957c.041,1,.082,2,.122,3q-.062-1.5-.122-3" transform="translate(172.995 65.043)" fill-rule="evenodd"/>
    <path id="Path_173" data-name="Path 173" d="M772,550.258l3-.05a2.612,2.612,0,0,1-3,.05" transform="translate(172.995 65.043)" fill-rule="evenodd"/>
    <path id="Path_174" data-name="Path 174" d="M734,535.443c-.669.01-1.339.02-2,.028l2-.028" transform="translate(172.995 65.043)" fill-rule="evenodd"/>
    <path id="Path_175" data-name="Path 175" d="M708,598.644l4-.373-4,.373" transform="translate(172.995 65.043)" fill-rule="evenodd"/>
    <path id="Path_176" data-name="Path 176" d="M692,600.632l4-.349Z" transform="translate(172.995 65.043)" fill-rule="evenodd"/>
    <path id="Path_177" data-name="Path 177" d="M770,630.645l4-.376-4,.376" transform="translate(172.995 65.043)" fill-rule="evenodd"/>
    <path id="Path_178" data-name="Path 178" d="M722,636.666a4.834,4.834,0,0,1,4,.012l-4-.012" transform="translate(172.995 65.043)" fill-rule="evenodd"/>
    <path id="Path_179" data-name="Path 179" d="M719.885,498.825l-1.88-.65,7-.086c.005,0-4.851.757-5.12.736" transform="translate(172.995 65.043)" fill-rule="evenodd"/>
    <path id="Path_180" data-name="Path 180" d="M702,481.459l-5,0c1.673,0,3.337,0,5,0" transform="translate(172.995 65.043)" fill-rule="evenodd"/>
    <path id="Path_181" data-name="Path 181" d="M639,519.684a7.26,7.26,0,0,1,5-.018l-5,.018" transform="translate(172.995 65.043)" fill-rule="evenodd"/>
    <path id="Path_182" data-name="Path 182" d="M740,503.439l-3,.036,3-.036" transform="translate(172.995 65.043)" fill-rule="evenodd"/>
    <path id="Path_183" data-name="Path 183" d="M719,490.294l5,.327q-2.5-.165-5-.327" transform="translate(172.995 65.043)" fill-rule="evenodd"/>
    <path id="Path_184" data-name="Path 184" d="M698,500.634q2.5-.177,5-.354-2.5.179-5,.354" transform="translate(172.995 65.043)" fill-rule="evenodd"/>
    <path id="Path_185" data-name="Path 185" d="M711,498.627l4-.339-4,.339" transform="translate(172.995 65.043)" fill-rule="evenodd"/>
    <path id="Path_186" data-name="Path 186" d="M700,489.293l4,.328-4-.328" transform="translate(172.995 65.043)" fill-rule="evenodd"/>
    <path id="Path_187" data-name="Path 187" d="M681,508.478l-2-.042,2,.042" transform="translate(172.995 65.043)" fill-rule="evenodd"/>
    <path id="Path_188" data-name="Path 188" d="M702,498.52l-2-.125c.672.041,1.336.083,2,.125" transform="translate(172.995 65.043)" fill-rule="evenodd"/>
    <path id="Path_189" data-name="Path 189" d="M689,498.485c-.67-.019-1.34-.038-2-.055l2,.055" transform="translate(172.995 65.043)" fill-rule="evenodd"/>
    <path id="Path_190" data-name="Path 190" d="M725,497.555c0,.259,3.012-1.055,3,.167Z" transform="translate(172.995 65.043)" fill-rule="evenodd"/>
    <path id="Path_191" data-name="Path 191" d="M714,481.456l-2,0,2,0" transform="translate(172.995 65.043)" fill-rule="evenodd"/>
    <path id="Path_192" data-name="Path 192" d="M359,434.034c1.083-4.419.788-7.877,4.645-5.053,2.117,1.55,5.606,9.412,5.341,12.075-.326,3.285-1.824,4.594-4.915,3.549-3.554-1.2-4.965-7.266-5.07-10.571" transform="translate(172.995 65.043)" fill-rule="evenodd"/>
    <path id="Path_193" data-name="Path 193" d="M553.835,407.2c8.956,0,5.048,9.531-2.417,9.744-3.43.1-8.365-.579-7.253-5.171.594-2.45,9.3-5.754,9.67-4.574" transform="translate(172.995 65.043)" fill-rule="evenodd"/>
    <path id="Path_194" data-name="Path 194" d="M457.779,425.957c6.465,3.128-2.631,16.863-8.505,13.463-7.522-4.352,5.847-11.5,8.505-13.463" transform="translate(172.995 65.043)" fill-rule="evenodd"/>
    <path id="Path_195" data-name="Path 195" d="M442.049,438.957c2.116,2.308,11.652,10.133,6.4,13.28-6.464,3.87-11.384-8.9-6.4-13.28" transform="translate(172.995 65.043)" fill-rule="evenodd"/>
    <path id="Path_196" data-name="Path 196" d="M333.683,432.957c-2.1-4.067.791-14.71,7.212-12.765,6.462,1.959-3.657,11.685-7.212,12.765" transform="translate(172.995 65.043)" fill-rule="evenodd"/>
    <path id="Path_197" data-name="Path 197" d="M476.345,435.3c4.192-1.688,3.394,3.307,4.028,4.917.718,1.831,4.409,6.288,3.484,8.236-1.374,2.891-4.659,1.048-6.443-.828-3.127-3.291-2.9-8.568-1.069-12.325" transform="translate(172.995 65.043)" fill-rule="evenodd"/>
    <path id="Path_198" data-name="Path 198" d="M412.445,439.93c-3.495,0-11.837-10.076-6.935-11.766,6.084-2.1,11.171,12.507,6.935,11.766" transform="translate(172.995 65.043)" fill-rule="evenodd"/>
    <path id="Path_199" data-name="Path 199" d="M533.213,423.957c3.2.789,7.436,9.851,2.613,10.9-5.341,1.165-6.294-8.4-2.613-10.9" transform="translate(172.995 65.043)" fill-rule="evenodd"/>
    <path id="Path_200" data-name="Path 200" d="M513.808,440.957c-2.511-4.834-3.129-15.182,3-6.876,1.328,1.8,2.7,1.072,2.016,4.039-.6,2.591-2.975,2.837-5.016,2.837" transform="translate(172.995 65.043)" fill-rule="evenodd"/>
    <path id="Path_201" data-name="Path 201" d="M381.59,415.957c2.558,3.851,1.8,15.926-3.543,8.784-2.273-3.036-.708-8.64,3.543-8.784" transform="translate(172.995 65.043)" fill-rule="evenodd"/>
    <path id="Path_202" data-name="Path 202" d="M510.193,53.055c4.964-1.282,6.154,10.421,3.259,11.711-4.053,1.805-3.545-9.754-3.259-11.711" transform="translate(172.995 65.043)" fill-rule="evenodd"/>
    <path id="Path_203" data-name="Path 203" d="M824.161,647.606c-4.607-.269-11.061-1.526-4.082-4.8,4.427-2.071,11.011-2.216,15.686-1.366,3.222.586,8.058,3.257,3.14,6.72-2.878,2.026-11.244-.46-14.744-.558" transform="translate(172.995 65.043)" fill="#fff" stroke="#000" stroke-width="1" fill-rule="evenodd"/>
    <path id="Path_204" data-name="Path 204" d="M819,655.957,815,655.508c1.068-1.939,4.171-2.346,3.993.449" transform="translate(172.995 65.043)" fill-rule="evenodd"/>
    <path id="Path_205" data-name="Path 205" d="M825,647.414l4,.087-4-.087" transform="translate(172.995 65.043)" fill-rule="evenodd"/>
  </g>
</svg>
